<?xml version="1.0" standalone="no"?><!DOCTYPE svg PUBLIC "-//W3C//DTD SVG 1.1//EN" "http://www.w3.org/Graphics/SVG/1.1/DTD/svg11.dtd"><svg t="1592380895972" class="icon" viewBox="0 0 1024 1024" version="1.1" xmlns="http://www.w3.org/2000/svg" p-id="3659" xmlns:xlink="http://www.w3.org/1999/xlink" width="200" height="200"><defs><style type="text/css"></style></defs><path d="M991.996472 32.014816v959.992945H32.014816V32.014816h959.981656M1024 0.011289H0.022577V1024H1024V0.011289z" p-id="3660"></path><path d="M288.009172 160.00635c70.577092 0 128.002822 57.42573 128.002822 128.002822s-57.42573 128.002822-128.002822 128.002822-128.002822-57.42573-128.002822-128.002822 57.42573-128.002822 128.002822-128.002822m0-31.992239c-88.368118 0-159.995061 71.638232-159.995061 159.995061s71.638232 159.995061 159.995061 159.995061 159.995061-71.638232 159.995061-159.995061S376.37729 128.014111 288.009172 128.014111zM991.996472 397.272715v594.735046H76.977797L511.864535 554.727814l137.316018 139.720516a32.014816 32.014816 0 0 0 22.679044 9.572836h0.146753c8.489119 0 16.628288-3.375328 22.633888-9.369639l297.356234-297.378812m32.003528-77.260015L672.00635 672.017639 512 509.211686 0.011289 1024H1024V320.0127z" p-id="3661"></path></svg>