<?xml version="1.0" standalone="no"?><!DOCTYPE svg PUBLIC "-//W3C//DTD SVG 1.1//EN" "http://www.w3.org/Graphics/SVG/1.1/DTD/svg11.dtd"><svg t="1592970819619" class="icon" viewBox="0 0 1024 1024" version="1.1" xmlns="http://www.w3.org/2000/svg" p-id="2019" xmlns:xlink="http://www.w3.org/1999/xlink" width="200" height="200"><defs><style type="text/css"></style></defs><path d="M698.88 330.24c-24.064 0-43.008 19.456-43.008 43.008 0 3.584 0.512 7.68 1.536 10.752l-74.752 79.872c-2.048-0.512-5.12-0.512-8.192-0.512-11.264 0-22.528 4.608-30.72 12.8l-52.736-11.264c-6.144-16.384-22.528-28.672-40.448-28.672-24.064 0-43.008 19.456-43.008 43.008 0 2.048 0 3.584 0.512 6.144L337.92 544.768c-3.584-1.536-8.192-2.048-12.8-2.048-24.064 0-43.008 19.456-43.008 43.008 0 11.264 4.608 22.528 12.8 30.72 8.192 8.192 18.944 12.8 30.208 12.8 24.064 0 43.008-19.456 43.008-43.008 0-2.048 0-3.584-0.512-6.144l68.608-58.88c3.584 1.536 8.192 2.048 12.8 2.048 11.264 0 22.528-4.608 30.72-12.8L532.48 522.24c6.144 16.384 22.528 27.648 40.448 27.648 13.312 0 26.112-6.144 34.816-17.408 8.192-10.752 10.752-24.064 7.68-36.864l74.752-79.872c2.048 0.512 5.12 0.512 8.192 0.512 24.064-0.512 43.52-20.48 43.52-43.52 0-23.552-19.968-42.496-43.008-42.496z" p-id="2020"></path><path d="M512.512 869.888c-57.856 0-114.176-13.824-163.84-39.936-49.152-25.6-91.648-62.464-124.416-106.496l-0.512-0.512c-0.512-1.024-1.024-1.536-1.536-2.048v-0.512c-44.032-60.416-67.072-132.608-67.072-207.872 0-197.12 160.768-357.376 357.888-357.376 95.232 0 185.344 37.376 252.928 104.96 67.072 67.584 103.936 157.184 103.936 252.928 0 63.488-16.896 125.952-49.664 181.248v0.512c-0.512 1.536-1.024 2.56-1.536 3.072l-0.512 0.512c-30.72 50.176-74.752 93.184-127.488 123.904-55.296 31.232-116.736 47.616-178.176 47.616z m-198.144-149.504c-4.608 0-9.216 0-12.8 1.536l-7.68 2.56 6.144 5.632c56.832 55.808 134.656 87.552 214.016 87.552 76.8 0 150.016-28.672 206.336-80.896l9.728-8.704h-21.504c-15.36-0.512-28.672-3.584-41.472-6.656l-4.608-1.024-5.632-1.536-6.656-1.536c-15.872-4.096-30.72-7.68-47.616-7.68-7.168 0-18.944 0.512-31.744 3.584-15.36 3.072-29.184 7.168-41.984 11.264l-3.072 1.024-3.584 1.024-5.12 1.536c-25.088 7.68-48.64 14.848-76.8 14.848-20.992 0-41.984-4.096-65.024-11.776-17.92-6.656-37.376-10.24-58.88-10.24h-2.048z m0.512-51.712c26.112 0 52.224 4.608 77.824 13.312 16.384 5.632 31.744 8.704 46.592 8.704 22.016 0 41.984-5.632 67.072-13.824l7.68-2.56c15.36-5.12 30.208-9.728 44.544-12.8 13.312-3.072 27.648-5.12 43.008-5.12 26.624 0 48.64 5.632 66.56 11.264H669.696c11.776 4.096 24.064 7.168 38.912 9.728h5.632c25.088 0 49.152-8.704 60.416-12.8l2.56-1.024 1.024-1.536c25.6-47.104 38.912-98.304 38.912-149.504 0-168.448-136.704-305.152-305.152-305.152-168.448 0-305.152 136.704-305.152 305.152 0 56.832 15.872 112.64 45.568 160.256l2.048 3.072 3.584-1.024c17.92-4.608 35.328-6.656 56.32-6.656h0.512z" p-id="2021"></path></svg>